<?xml version="1.0" standalone="no"?>
<!DOCTYPE svg PUBLIC "-//W3C//DTD SVG 20010904//EN"
 "http://www.w3.org/TR/2001/REC-SVG-20010904/DTD/svg10.dtd">
<svg version="1.0" xmlns="http://www.w3.org/2000/svg"
 width="576.000000pt" height="576.000000pt" viewBox="0 0 576.000000 576.000000"
 preserveAspectRatio="xMidYMid meet">
<metadata>
Created by potrace 1.11, written by Peter Selinger 2001-2013
</metadata>
<g transform="translate(0.000000,576.000000) scale(0.100000,-0.100000)"
fill="#000000" stroke="none">
<path d="M1898 5115 c-2 -2 -41 -6 -88 -9 -153 -11 -436 -72 -587 -127 -188
-67 -349 -148 -508 -253 -370 -247 -610 -580 -690 -961 -22 -104 -27 -323 -9
-440 34 -221 147 -464 307 -658 53 -63 55 -69 44 -95 -56 -125 -193 -336 -301
-466 -36 -43 -66 -87 -66 -97 0 -35 19 -66 48 -78 36 -15 183 -9 317 14 142
23 329 87 488 165 l118 59 72 -33 c188 -86 428 -154 667 -190 210 -32 631 -27
795 9 11 2 43 7 70 11 28 3 53 8 58 11 4 2 20 6 35 9 147 25 388 113 572 208
493 254 825 667 905 1126 13 76 12 307 -2 399 -32 215 -141 452 -296 646 -44
55 -190 201 -252 253 -129 107 -375 250 -545 317 -52 20 -104 41 -115 45 -110
43 -328 92 -555 125 -46 7 -476 16 -482 10z"/>
<path d="M4496 3692 c17 -34 17 -56 0 -107 -8 -22 -16 -87 -19 -145 -16 -286
-115 -575 -282 -823 -66 -98 -74 -109 -154 -201 -231 -268 -605 -514 -986
-650 -118 -42 -332 -100 -412 -111 -21 -4 -45 -8 -53 -10 -21 -6 -153 -24
-235 -33 -85 -8 -425 -9 -518 -1 -37 4 -67 3 -67 -1 0 -4 22 -41 48 -81 210
-321 541 -573 961 -731 92 -34 276 -87 358 -103 229 -42 296 -49 533 -49 247
-1 338 8 546 49 145 29 343 92 477 150 l98 43 117 -58 c132 -66 274 -117 407
-148 103 -24 150 -30 292 -38 102 -6 102 -6 128 22 33 36 34 89 1 115 -70 55
-265 345 -338 501 l-17 38 55 67 c153 186 253 391 300 613 25 116 25 362 0
480 -67 321 -243 602 -531 848 -154 132 -407 274 -647 362 l-76 29 14 -27z"/>
</g>
</svg>
